# File created by Blade
# Date/Time:  Fri Jan 16 19:18:57 2015
# Frame Rate: 120.000 fps
#------------------------------------------------------
:FULLY-SPECIFIED
:DEGREES
934
root 19.630798 35.746391 -21.520775 -172.698891 -0.492271 -179.084919
Spine -17.403711 1.579040 -1.534371
Head 10.274030 -5.664657 2.326932
LeftShoulder -11.351189 -38.445283 30.123590
LeftArm 8.988852 -6.616580 4.028586
LeftForeArm 12.806811 -0.000000 6.462897
LeftHand 6.119033 -0.000000 23.646464
LeftHandThumb1 -26.253704 0.000000 33.147579
RightShoulder -9.416312 4.240080 -19.300497
RightArm 1.175531 47.422127 -3.700241
RightForeArm -35.791288 -0.000000 11.737455
RightHand -4.367653 -0.000000 -15.582296
RightHandThumb1 -24.326973 -0.000000 -32.862282
LeftUpLeg 0.101429 9.598490 -0.276223
LeftLeg -5.980990 -0.000000 0.000000
LeftFoot -19.238835 25.921088 -14.537019
LeftToeBase 25.253704 -0.000000 -0.000000
RightUpLeg -1.348907 -5.803471 0.032103
RightLeg -1.443375 -0.000000 0.000000
RightFoot -20.749051 -24.676175 17.545222
RightToeBase 23.025023 -0.000000 -0.000000
935
root 19.616686 35.747283 -21.498343 -172.750364 -0.492124 -179.118229
Spine -17.211048 1.566579 -1.454619
Head 10.112558 -5.598606 2.171736
LeftShoulder -11.222594 -38.249185 29.828092
LeftArm 8.649516 -5.913397 3.694965
LeftForeArm 13.029042 -0.000000 5.932581
LeftHand 6.048811 -0.000000 23.189783
LeftHandThumb1 -26.253704 0.000000 33.147579
RightShoulder -9.384260 4.174747 -19.199532
RightArm 1.265062 47.338155 -3.116768
RightForeArm -35.890941 -0.000000 11.444426
RightHand -4.442861 0.000000 -15.269818
RightHandThumb1 -24.326973 -0.000000 -32.862282
LeftUpLeg 0.096982 9.584696 -0.328552
LeftLeg -5.941099 -0.000000 0.000000
LeftFoot -19.227474 25.920355 -14.539559
LeftToeBase 25.253318 -0.000000 -0.000000
RightUpLeg -1.361690 -5.848789 -0.022445
RightLeg -1.390300 -0.000000 0.000000
RightFoot -20.727410 -24.658832 17.474243
RightToeBase 23.019307 -0.000000 -0.000000
936
root 19.604517 35.747928 -21.476112 -172.788952 -0.478281 -179.136047
Spine -17.050399 1.568116 -1.370643
Head 9.879229 -5.475237 2.130801
LeftShoulder -11.138614 -37.849575 29.531458
LeftArm 8.414600 -5.241392 3.318366
LeftForeArm 13.264112 -0.000000 5.358701
LeftHand 5.971154 -0.000000 22.886782
LeftHandThumb1 -26.253704 0.000000 33.147579
RightShoulder -9.331572 3.911427 -19.013794
RightArm 1.393557 47.304380 -2.636620
RightForeArm -35.851472 0.000000 10.999306
RightHand -4.524542 0.000000 -14.979541
RightHandThumb1 -24.326973 -0.000000 -32.862282
LeftUpLeg 0.086918 9.565895 -0.363089
LeftLeg -5.908494 -0.000000 0.000000
LeftFoot -19.223300 25.942224 -14.513753
LeftToeBase 25.250342 -0.000000 -0.000000
RightUpLeg -1.387774 -5.862655 -0.058878
RightLeg -1.339596 -0.000000 0.000000
RightFoot -20.717436 -24.692462 17.428519
RightToeBase 22.983498 -0.000000 -0.000000
937
root 19.593413 35.748425 -21.454358 -172.833982 -0.455920 -179.160701
Spine -16.871109 1.581022 -1.299094
Head 9.696120 -5.390761 2.006864
LeftShoulder -11.048781 -37.382211 29.211364
LeftArm 8.154987 -4.769351 2.921285
LeftForeArm 13.640075 -0.000000 4.863431
LeftHand 5.958091 -0.000000 22.333573
LeftHandThumb1 -26.253704 0.000000 33.147579
RightShoulder -9.267539 3.798115 -18.858229
RightArm 1.421823 47.073322 -2.217732
RightForeArm -35.885878 -0.000000 10.626527
RightHand -4.446282 -0.000000 -14.531383
RightHandThumb1 -24.326973 -0.000000 -32.862282
LeftUpLeg 0.081991 9.587685 -0.405537
LeftLeg -5.872267 -0.000000 0.000000
LeftFoot -19.209275 25.929421 -14.495468
LeftToeBase 25.256612 -0.000000 -0.000000
RightUpLeg -1.400158 -5.853677 -0.102140
RightLeg -1.303968 -0.000000 0.000000
RightFoot -20.697371 -24.678301 17.366543
RightToeBase 23.087783 -0.000000 -0.000000
938
root 19.583712 35.748684 -21.431870 -172.867902 -0.416175 -179.185286
Spine -16.690243 1.613297 -1.238991
Head 9.462696 -5.329821 1.909906
LeftShoulder -10.988981 -37.021194 28.913229
LeftArm 7.929556 -4.121862 2.567675
LeftForeArm 14.142576 -0.000000 4.365509
LeftHand 5.876990 -0.000000 21.695701
LeftHandThumb1 -26.253704 0.000000 33.147579
RightShoulder -9.308444 3.539054 -18.667130
RightArm 1.653097 46.871063 -1.688874
RightForeArm -35.940269 0.000000 10.205985
RightHand -4.515444 -0.000000 -14.188773
RightHandThumb1 -24.326973 -0.000000 -32.862282
LeftUpLeg 0.069829 9.639946 -0.449667
LeftLeg -5.844746 -0.000000 0.000000
LeftFoot -19.203099 25.897982 -14.499499
LeftToeBase 25.269653 -0.000000 -0.000000
RightUpLeg -1.427579 -5.855760 -0.145452
RightLeg -1.269239 -0.000000 0.000000
RightFoot -20.666907 -24.652704 17.336607
RightToeBase 23.012883 -0.000000 -0.000000
939
root 19.572141 35.749055 -21.409020 -172.878227 -0.397733 -179.204983
Spine -16.543271 1.623018 -1.163977
Head 9.232069 -5.223762 1.833235
LeftShoulder -10.947195 -36.752085 28.655224
LeftArm 7.696535 -3.380647 2.172923
LeftForeArm 14.639822 0.000000 3.930628
LeftHand 5.705791 -0.000000 21.148592
LeftHandThumb1 -26.253704 0.000000 33.147579
RightShoulder -9.229132 3.274429 -18.388481
RightArm 1.639549 46.521236 -1.503450
RightForeArm -35.870362 0.000000 9.793330
RightHand -4.491113 -0.000000 -13.705867
RightHandThumb1 -24.326973 -0.000000 -32.862282
LeftUpLeg 0.015835 9.707828 -0.496092
LeftLeg -5.792606 -0.000000 0.000000
LeftFoot -19.135127 25.861478 -14.414229
LeftToeBase 25.153231 -0.000000 -0.000000
RightUpLeg -1.473435 -5.897818 -0.179712
RightLeg -1.238918 -0.000000 0.000000
RightFoot -20.640979 -24.643032 17.220704
RightToeBase 23.208623 -0.000000 -0.000000
940
root 19.561163 35.749889 -21.386739 -172.890020 -0.379792 -179.222387
Spine -16.397458 1.629082 -1.097885
Head 9.038405 -5.145897 1.755187
LeftShoulder -11.015790 -36.337233 28.442136
LeftArm 7.634684 -2.797060 1.682606
LeftForeArm 15.133699 -0.000000 3.365650
LeftHand 5.729283 -0.000000 20.584372
LeftHandThumb1 -26.253704 0.000000 33.147579
RightShoulder -9.208871 2.866082 -18.107316
RightArm 1.754374 46.313464 -1.196736
RightForeArm -35.837553 -0.000000 9.337978
RightHand -4.359422 -0.000000 -13.204738
RightHandThumb1 -24.326973 -0.000000 -32.862282
LeftUpLeg -0.020907 9.750406 -0.538637
LeftLeg -5.766806 -0.000000 0.000000
LeftFoot -19.120012 25.842247 -14.399675
LeftToeBase 25.109629 -0.000000 -0.000000
RightUpLeg -1.512548 -5.932407 -0.209202
RightLeg -1.217257 -0.000000 0.000000
RightFoot -20.616392 -24.625080 17.179550
RightToeBase 23.162335 -0.000000 -0.000000
941
root 19.550479 35.750403 -21.362620 -172.908503 -0.333230 -179.241590
Spine -16.219361 1.645753 -1.036115
Head 8.767220 -5.073507 1.715388
LeftShoulder -11.049730 -35.910222 28.231236
LeftArm 7.454512 -2.240640 1.217899
LeftForeArm 15.653920 -0.000000 2.929527
LeftHand 5.666779 -0.000000 19.968070
LeftHandThumb1 -26.253704 0.000000 33.147579
RightShoulder -9.236185 2.726698 -17.889960
RightArm 1.957810 45.957193 -0.785121
RightForeArm -35.905203 -0.000000 8.941028
RightHand -4.222589 -0.000000 -12.677209
RightHandThumb1 -24.326973 -0.000000 -32.862282
LeftUpLeg -0.047827 9.804198 -0.582936
LeftLeg -5.741960 -0.000000 0.000000
LeftFoot -19.148965 25.818834 -14.410037
LeftToeBase 25.269770 -0.000000 -0.000000
RightUpLeg -1.552477 -5.922153 -0.242851
RightLeg -1.196094 -0.000000 0.000000
RightFoot -20.638036 -24.616734 17.241567
RightToeBase 23.192968 -0.000000 -0.000000
942
root 19.541875 35.749832 -21.339707 -172.904140 -0.275327 -179.260426
Spine -16.094036 1.677399 -0.978613
Head 8.549472 -4.954427 1.647577
LeftShoulder -11.064242 -35.668529 28.014569
LeftArm 7.307559 -1.492110 0.805411
LeftForeArm 16.129471 0.000000 2.455317
LeftHand 5.666252 -0.000000 19.241177
LeftHandThumb1 -26.253704 0.000000 33.147579
RightShoulder -9.375828 2.728400 -17.730591
RightArm 2.468978 45.394326 -0.144487
RightForeArm -35.525250 0.000000 8.392805
RightHand -4.072855 -0.000000 -12.564545
RightHandThumb1 -24.326973 -0.000000 -32.862282
LeftUpLeg -0.093789 9.867231 -0.628489
LeftLeg -5.721239 -0.000000 0.000000
LeftFoot -19.148359 25.813858 -14.387637
LeftToeBase 25.328495 -0.000000 -0.000000
RightUpLeg -1.606923 -5.910612 -0.275195
RightLeg -1.184916 -0.000000 0.000000
RightFoot -20.593113 -24.607003 17.137313
RightToeBase 23.238881 -0.000000 -0.000000
943
root 19.534851 35.749108 -21.319514 -172.895012 -0.243875 -179.277578
Spine -15.988060 1.684313 -0.925764
Head 8.366611 -4.847219 1.592697
LeftShoulder -11.085090 -35.363293 27.815924
LeftArm 7.135880 -0.867281 0.343249
LeftForeArm 16.617909 -0.000000 2.118441
LeftHand 5.488741 0.000000 18.576805
LeftHandThumb1 -26.253704 0.000000 33.147579
RightShoulder -9.420115 2.509651 -17.484903
RightArm 2.702483 45.232363 0.254452
RightForeArm -35.419973 0.000000 8.076380
RightHand -4.039317 -0.000000 -11.998504
RightHandThumb1 -24.326973 -0.000000 -32.862282
LeftUpLeg -0.138662 9.899429 -0.667232
LeftLeg -5.708702 -0.000000 0.000000
LeftFoot -19.130673 25.813853 -14.348122
LeftToeBase 25.345800 -0.000000 -0.000000
RightUpLeg -1.648302 -5.928315 -0.303854
RightLeg -1.194658 -0.000000 0.000000
RightFoot -20.505786 -24.599569 16.933975
RightToeBase 23.333389 -0.000000 -0.000000
